<?xml version="1.0" encoding="utf-8"?>
<!-- Generator: Adobe Illustrator 22.0.1, SVG Export Plug-In . SVG Version: 6.00 Build 0)  -->
<svg version="1.1" id="Layer_1" xmlns="http://www.w3.org/2000/svg" xmlns:xlink="http://www.w3.org/1999/xlink" x="0px" y="0px"
	 viewBox="0 0 600 400" style="enable-background:new 0 0 600 400;" xml:space="preserve">
<style type="text/css">
	.st0{fill-rule:evenodd;clip-rule:evenodd;fill:#F8EC0E;}
</style>
<path class="st0" d="M306,103.6c39.5-0.7,64.7,27,74.6,55.8c9.6,28.1-11.4,66.6-28.8,74.6c0,0.8,0,1.6,0,2.3
	c4.3,2.3,27.6,21.8,28.2,26.4c-5.4,7-12.1,12-18.2,18.2c-0.8-0.4-1.6-0.8-2.3-1.2c-7-3.2-23.5-28.1-32.9-35.2
	c-15.1,0.9-25.5-2.9-37.6-4.7c0,0.2,0,0.4,0,0.6c0.9,1.8,1,1.9,0.6,4.1c-24.3,7.2-29.7,51.1-56.4,45.2c-2.6-3.4-5.2-5.1-7-9.4
	c1.1-20.3,20.6-24.2,32.9-33.5c6.8-5.1,10.3-11.7,14.1-20c4.2,0.6,6.2-1.5,10.6-0.6c8.3,1.8,16.5,10.3,27.6,3.5
	c-5.9-5.9-11.7-11.7-17.6-17.6c-9.2-9.6-18.4-19.2-27.6-28.8c-0.4,0-0.8,0-1.2,0c-3.6,5-12.2,15.6-18.8,17
	c-6.5-6.5-12.9-12.9-19.4-19.4c0-0.6,0-1.2,0-1.8c12.7-12.7,25.4-25.4,38.2-38.2c7.6-3.7,15.3-7.4,22.9-11.2
	c4.3-2.3,8.6-6.4,14.1-5.9c3.6,7.5-14.3,35.6-19.4,42.3c17.4,16.8,34.8,33.7,52.3,50.5c0.4,0,0.8,0,1.2,0
	c5.7-7.2,13.8-12.5,18.2-21.1c17.2-33.8-2.7-64.5-25.8-78.1c-8.1-4.8-23-5.1-30.5-11.2c0-0.2,0-0.4,0-0.6
	C300.5,105.2,303.3,104.4,306,103.6z"/>
</svg>
