<?xml version="1.0" encoding="utf-8"?>
<!-- Generator: Adobe Illustrator 21.0.0, SVG Export Plug-In . SVG Version: 6.00 Build 0)  -->
<svg version="1.1" id="Layer_1" xmlns="http://www.w3.org/2000/svg" xmlns:xlink="http://www.w3.org/1999/xlink" x="0px" y="0px"
	 viewBox="0 0 300 106" style="enable-background:new 0 0 300 106;" xml:space="preserve">
<style type="text/css">
	.st0{display:none;}
	.st1{display:inline;}
	.st2{font-family:'FranklinGothic-Heavy';}
	.st3{font-size:95.417px;}
	.st4{letter-spacing:-2;}
	.st5{letter-spacing:-4;}
	.st6{fill:#FFFFFF;}
</style>
<g id="original" class="st0">
	<text transform="matrix(1 0 0 1 21 87.1855)" class="st1 st2 st3">w</text>
	<text transform="matrix(1 0 0 1 90 87.1855)" class="st1 st2 st3 st4">in</text>
	<text transform="matrix(1 0 0 1 166.7 87.1855)" class="st1 st2 st3 st5">t</text>
	<text transform="matrix(1 0 0 1 196.5 87.1855)" class="st1 st2 st3 st4">e</text>
	<text transform="matrix(1 0 0 1 248.6 87.1855)" class="st1 st2 st3">r</text>
</g>
<g id="outlined">
	<path class="st6" d="M91.2,39.8l-15,47.4H62.8l-6.2-25.7l-6.5,25.7H36.9L21.7,39.8H40L46.2,63l6-23.2H66L71.8,63l6.6-23.2H91.2z"/>
	<path class="st6" d="M113.4,39.8v47.4H94.8V39.8H113.4z"/>
	<path class="st6" d="M165.7,87.2h-18.6V57.4c0-2.5-0.4-4-1.1-4.7c-0.8-0.7-1.7-1-2.9-1c-3.4,0-5.1,2.4-5.1,7.1v28.5h-18.6V39.8
		h17.2v6.7c2.5-5.1,7.1-7.7,13.7-7.7c3.4,0,6.4,0.7,8.7,2c2.4,1.3,4.1,3,5.1,5.1s1.5,5.7,1.5,10.9v30.4H165.7z"/>
	<path class="st6" d="M200.9,39.8v12.1h-9.5v17.5c0,2.4,0.4,3.8,1.4,4.3c0.9,0.5,1.8,0.7,2.8,0.7c1.5,0,3.3-0.3,5.3-0.8v13.2
		c-3.7,0.7-7.3,1.1-10.8,1.1c-5.7,0-9.9-1.2-12.6-3.7c-2.7-2.5-4-6.4-4-11.7V67V52h-7.1V39.8h7.1l0.3-15.4l17.7-0.3v15.7H200.9z"/>
	<path class="st6" d="M232.7,70.2l17.3,1.2c-1,4.7-3.6,8.6-7.9,11.9s-9.9,4.9-17.1,4.9c-8,0-14.3-2.3-19.1-6.9s-7.1-10.3-7.1-17.2
		c0-7.1,2.3-13.1,7-17.9c4.7-4.9,10.9-7.3,18.8-7.3c7.6,0,13.7,2.3,18.4,6.9s7,10.9,7,18.8c0,0.7,0,1.6,0,2.7h-31.7
		c0.1,3,0.6,5.2,1.6,6.6s2.9,2.2,5.7,2.2C229.6,76,232,74.1,232.7,70.2z M231.4,57.9c0-3.2-0.7-5.4-1.9-6.5
		c-1.3-1.1-2.8-1.7-4.7-1.7c-4.4,0-6.6,2.7-6.6,8.1L231.4,57.9L231.4,57.9z"/>
	<path class="st6" d="M271.3,87.2h-17.8V39.8H269v9.8c1.8-7.1,5.9-10.7,12.3-10.7c0.7,0,1.6,0.1,2.7,0.2v16.5
		c-1.3-0.3-2.5-0.5-3.5-0.5c-6.1,0-9.2,3.4-9.2,10.3V87.2z"/>
	<path class="st6" d="M143.2,106.9h13.2"/>
	<path class="st6" d="M113.4,35c0-4.3-0.9-7.3-2.6-8.8S107,24,104.5,24c-6,0-8.9,3.7-8.9,11H113.4z"/>
</g>
</svg>
